<svg xmlns="http://www.w3.org/2000/svg" viewBox="0 0 48 48" role="img" aria-label="Loading"><defs><mask id="ldA" maskUnits="userSpaceOnUse" x="-24" y="-24" width="96" height="96"><rect x="-24" y="-24" width="96" height="96" fill="#fff"/><path d="M12,28 C16,28 16,20 20,20 C24,20 24,28 28,28 C32,28 32,20 36,20" fill="none" stroke="#000" stroke-width="6" stroke-linecap="round"/><path d="M22.7,26.3 Q24,24 25.3,21.7" fill="none" stroke="#fff" stroke-width="6" stroke-linecap="round"/></mask><mask id="ldB" maskUnits="userSpaceOnUse" x="-24" y="-24" width="96" height="96"><rect x="-24" y="-24" width="96" height="96" fill="#fff"/><path d="M22.7,26.3 Q24,24 25.3,21.7" fill="none" stroke="#000" stroke-width="6" stroke-linecap="round"/></mask></defs><path d="M12,28 C16,28 16,20 20,20 C24,20 24,28 28,28 C32,28 32,20 36,20" fill="none" stroke="#60a5fa" stroke-width="3.5" stroke-linecap="round" mask="url(#ldB)" pathLength="100" stroke-dasharray="100 110"><animate attributeName="stroke-dashoffset" values="104;0;0;-104" dur="2s" repeatCount="indefinite" calcMode="spline" keyTimes="0;.45;.62;1" keySplines=".45 0 .25 1;.45 0 .25 1;.45 0 .25 1"/></path><path d="M12,20 C16,20 16,28 20,28 C24,28 24,20 28,20 C32,20 32,28 36,28" fill="none" stroke="#2563eb" stroke-width="3.5" stroke-linecap="round" mask="url(#ldA)" pathLength="100" stroke-dasharray="100 110"><animate attributeName="stroke-dashoffset" values="104;0;0;-104" dur="2s" repeatCount="indefinite" calcMode="spline" keyTimes="0;.45;.62;1" keySplines=".45 0 .25 1;.45 0 .25 1;.45 0 .25 1"/></path></svg>
